<svg xmlns="http://www.w3.org/2000/svg" width="800" height="600" viewBox="0 0 800 600">
  <rect width="800" height="230" fill="#cfe0ec"/>
  <rect y="230" width="800" height="370" fill="#878b91"/>
  <rect y="230" width="800" height="8" fill="#a1a6ac"/>
  <rect x="200" y="300" width="120" height="80" rx="8" fill="#6b6f75"/>
  <rect x="200" y="300" width="120" height="18" fill="#5c6066"/>
  <rect x="360" y="320" width="140" height="60" rx="8" fill="#6b6f75"/>
  <rect x="360" y="320" width="140" height="18" fill="#5c6066"/>
  <rect x="540" y="340" width="110" height="40" rx="8" fill="#6b6f75"/>
  <rect x="540" y="340" width="110" height="16" fill="#5c6066"/>
  <path d="M0 420 q80 -14 160 0 q80 14 160 0 q80 -14 160 0 q80 14 160 0 q80 -14 160 0" stroke="#a1a6ac" stroke-width="4" fill="none"/>
  <circle cx="140" cy="430" r="10" fill="#777"/>
  <path d="M680 380 q20 -26 46 -10" stroke="#777" stroke-width="6" fill="none"/>
</svg>
