<svg xmlns="http://www.w3.org/2000/svg" width="800" height="600" viewBox="0 0 800 600">
  <rect width="800" height="230" fill="#c8d9e8"/>
  <rect y="230" width="800" height="370" fill="#82868c"/>
  <rect y="230" width="800" height="8" fill="#9aa0a7"/>
  <path d="M300 240 v300" stroke="#8d9aa5" stroke-width="18" fill="none"/>
  <circle cx="300" cy="250" r="26" fill="#4a5b68"/>
  <path d="M380 240 h180" stroke="#8d9aa5" stroke-width="16" fill="none"/>
  <ellipse cx="480" cy="330" rx="70" ry="40" fill="#3f6f8f" opacity="0.9"/>
  <path d="M470 300 q-30 40 -6 70" stroke="#63a0c2" stroke-width="6" fill="none"/>
  <path d="M520 320 q20 30 6 60" stroke="#63a0c2" stroke-width="5" fill="none"/>
  <circle cx="500" cy="340" r="10" fill="#5b9ac0"/>
  <path d="M0 420 q80 -16 160 0 q80 16 160 0 q80 -16 160 0 q80 16 160 0 q80 -16 160 0" stroke="#9aa0a7" stroke-width="4" fill="none"/>
</svg>
